<?xml version="1.0" standalone="no"?>
<!DOCTYPE svg PUBLIC "-//W3C//DTD SVG 1.1//EN" "http://www.w3.org/Graphics/SVG/1.1/DTD/svg11.dtd" >
<!--
2013-9-30: Created.
-->
<svg>
<metadata>
Created by iconfont
</metadata>
<defs>

<font id="JW Page Factory" horiz-adv-x="1024" >
  <font-face
    font-family="JW Page Factory"
    font-weight="500"
    font-stretch="normal"
    units-per-em="1024"
    ascent="896"
    descent="-128"
  />
    <missing-glyph />
    
    <glyph glyph-name="12" unicode="&#58886;" d="M0 384v-512h1024V896H0v-512z m984.32 1.28v-472.32H38.4V857.6h945.92v-472.32z"  horiz-adv-x="1024" />

    
    <glyph glyph-name="pagefactory" unicode="&#58887;" d="M1011.30971666 694.83751652l0.70328433 1.85666901L511.68284064 892.13675406 12.18255605 694.65466313l-1.63161883 0.66108642-1e-8-1.2659109-0.07032831-0.04219676 0.07032831-0.21098496 1e-8-626.92124331 500.90685211-196.35683669 500.97718159 196.35683669L1012.43497092 695.3016843400001l-1.12525426-0.46416782zM511.21867282 853.70932679l169.70238066-60.76371966-462.60601629-179.61868288-156.69163009 61.83271195L511.20460761 853.70932679z m-17.61022635-938.8838707l-187.60798549 75.72959913-94.15563491 35.37517568-165.49674325 65.29286713L46.34808282 642.71012182l163.83699285-64.6317807 0-137.8998875 14.60017265 4.07904599 9.86003797-13.55931195 13.74216534 3.20697458 13.3061302-14.06567651 11.61824825 4.00871765 18.7354806-18.58075762 1e-8 140.51610283 14.58610517-5.75286158 186.97503061-73.7322735 0-551.48702265z m17.89154077 582.85348066l-182.9241162 72.15691776 451.14249103 182.85378787 186.04669611-75.81399381-454.26507094-179.19671182z m465.15190329-406.45583872L529.37746052-85.18860914000004 529.37746052 466.29841353l447.24629959 176.42577348L976.62376011 91.23716437999997l0.04219676-0.01406635z"  horiz-adv-x="1036" />

    
    <glyph glyph-name="2-10" unicode="&#58888;" d="M0 384v-512h198.4V896H0v-512z m158.72 0v-473.6H39.68V857.6h119.04v-473.6zM248.32 384v-512h775.68V896H248.32v-512z m736 0.64V-88.32000000000005H288V857.6h696.32v-472.96z"  horiz-adv-x="1024" />

    
    <glyph glyph-name="2-5-5" unicode="&#58889;" d="M0 384v-512h198.4V896H0v-512z m158.72 0v-473.6H39.68V857.6h119.04v-473.6zM248.32 384v-512h367.36V896H248.32v-512z m327.68 0v-473.6H288V857.6h288v-473.6zM657.92 384v-512h366.08V896H657.92v-512z m326.4 0.64V-88.32000000000005H696.32V857.6h288v-472.96z"  horiz-adv-x="1024" />

    
    <glyph glyph-name="3-3-3-3" unicode="&#58890;" d="M0 384v-512h220.16V896H0v-512z m180.48 0v-473.6H39.68V857.6h140.8v-473.6zM268.8 384v-512h218.88V896H268.8v-512z m180.48 0v-473.6H308.48V857.6h140.8v-473.6zM536.32 384v-512h218.88V896H536.32v-512z m179.2 0v-473.6H574.72V857.6h140.8v-473.6zM803.84 384v-512h220.16V896H803.84v-512z m180.48 0.64V-88.32000000000005H843.52V857.6h140.8v-472.96z"  horiz-adv-x="1024" />

    
    <glyph glyph-name="3-6-3" unicode="&#58891;" d="M0 384v-512h220.16V896H0v-512z m180.48 0v-473.6H39.68V857.6h140.8v-473.6zM268.8 384v-512h486.4V896H268.8v-512z m446.72 0v-473.6H308.48V857.6h407.04v-473.6zM803.84 384v-512h220.16V896H803.84v-512z m180.48 0.64V-88.32000000000005H843.52V857.6h140.8v-472.96z"  horiz-adv-x="1024" />

    
    <glyph glyph-name="3-9" unicode="&#58892;" d="M0 384v-512h220.16V896H0v-512z m180.48 0v-473.6H39.68V857.6h140.8v-473.6zM268.8 384v-512h755.2V896H268.8v-512z m715.52 0.64V-88.32000000000005H308.48V857.6h675.84v-472.96z"  horiz-adv-x="1024" />

    
    <glyph glyph-name="4-4-4" unicode="&#58893;" d="M0 384v-512h311.04V896H0v-512z m272.64 0v-473.6H38.4V857.6h234.24v-473.6zM357.12 384v-512h309.76V896H357.12v-512z m271.36 0v-473.6H395.52V857.6h232.96v-473.6zM712.96 384v-512h311.04V896H712.96v-512z m272.64 0.64V-88.32000000000005H752.64V857.6h232.96v-472.96z"  horiz-adv-x="1024" />

    
    <glyph glyph-name="6-6" unicode="&#58894;" d="M0 384v-512h487.68V896H0v-512z m449.28 0v-473.6H39.68V857.6h409.6v-473.6zM536.32 384v-512h487.68V896H536.32v-512z m448 0.64V-88.32000000000005H574.72V857.6h409.6v-472.96z"  horiz-adv-x="1024" />

    
    <glyph glyph-name="8-4" unicode="&#58895;" d="M0 384v-512h666.88V896H0v-512z m628.48 0v-473.6H38.4V857.6h590.08v-473.6zM712.96 384v-512h311.04V896H712.96v-512z m272.64 0.64V-88.32000000000005H752.64V857.6h232.96v-472.96z"  horiz-adv-x="1024" />

    
    <glyph glyph-name="6-6-12" unicode="&#58896;" d="M0 652.8v-243.2h485.12V896H0v-243.2z m445.44 0v-204.8H39.68V857.6h405.76v-204.8zM538.88 652.8v-243.2h485.12V896H538.88v-243.2z m445.44 0v-204.8H578.56V857.6h405.76v-204.8zM0 115.20000000000005v-243.2h1024V358.4H0v-243.2z m985.6 0v-203.52H39.68V318.72h945.92v-203.52z"  horiz-adv-x="1024" />

    
    <glyph glyph-name="add-columns" unicode="&#58897;" d="M0 384v-512h143.36V896H0v-512zM296.96 384v-512h142.08V896H296.96v-512zM592.64 760.96V625.9200000000001h143.36V896H592.64v-135.04zM880.64 688.64v-207.36h143.36V896H880.64v-207.36zM736 259.20000000000005V163.84000000000003H541.44v-102.4h194.56v-189.44h102.4V61.440000000000055h185.6v102.4H838.4V354.55999999999995h-102.4v-95.36z"  horiz-adv-x="1024" />

    
    <glyph glyph-name="add-new-row" unicode="&#58898;" d="M0 855.04v-40.96h1024V896H0v-40.96zM718.08 538.24V414.72H481.28v-74.24h236.8v-234.24h71.68V340.48h234.24v74.24H789.76V661.76h-71.68v-123.52zM0 616.32V576h614.4v80.64H0v-40.32zM0 377.6v-40.96h407.04v81.92H0v-40.96zM0 150.4V110.08h282.88v80.64H0v-40.32zM0-87.04v-40.96h614.4v81.92H0v-40.96z"  horiz-adv-x="1024" />

    
    <glyph glyph-name="addon" unicode="&#58899;" d="M0 384v-512h1024V298.24h-81.92v-344.32H81.92V814.08h322.56V896H0v-512zM679.68 760.96V625.92H413.44v-81.92h266.24v-254.72h81.92V544h262.4v81.92H761.6V896h-81.92v-135.04z"  horiz-adv-x="1024" />

    
    <glyph glyph-name="addons" unicode="&#58900;" d="M223.104 764.032c-4.48-1.28-25.856-20.608-40.32-36.352-18.56-20.096-39.296-47.744-53.12-70.4-44.288-73.216-67.584-159.36-65.28-242.304 2.816-101.888 36.992-193.92 101.376-272.896 14.72-18.048 46.592-49.664 65.664-65.024 68.352-55.424 147.84-88.32 235.776-97.792 19.328-2.048 73.6-2.048 91.52 0 104.32 12.032 197.248 56.832 270.336 130.56 70.912 71.424 113.152 157.696 126.72 258.816 2.944 21.888 3.328 89.088 0.64 110.08-6.912 53.376-20.224 96.384-45.824 147.328-22.144 44.416-46.08 77.312-83.072 114.432-20.352 20.48-26.88 24.96-35.968 24.96-6.272 0-14.208-3.712-18.56-8.448-5.888-6.4-46.72-61.056-49.28-65.792-3.2-6.016-3.2-18.304 0-24.32 1.408-2.432 8.96-11.264 16.896-19.456 15.616-16.384 35.968-42.624 46.208-59.904 21.248-35.712 35.712-77.568 42.112-121.6 2.56-17.664 2.816-57.6 0.64-75.52-3.456-28.032-11.648-59.904-22.016-86.144C768.512 206.08 681.472 134.528 574.208 112.64c-6.912-1.408-12.8-2.56-13.056-2.56-0.256 0-0.512 68.736-0.512 152.832V415.744l6.144 2.304c28.16 10.24 36.992 15.36 51.584 29.824 12.416 12.416 20.224 24.448 25.216 39.424l3.456 9.984 0.384 70.144 0.384 70.016H610.56l-0.128 11.264c-0.128 6.144-0.512 31.36-1.024 55.936-0.768 42.112-0.896 45.056-3.456 49.92-3.968 7.424-9.472 10.24-20.48 10.24-7.808 0-9.728-0.512-14.336-3.584-9.344-6.528-9.216-5.376-9.216-67.328V638.72h-97.28v54.4c0 44.16-0.384 55.296-1.792 58.88-2.176 5.12-9.344 10.112-17.664 12.288-7.168 1.92-14.592 0.256-21.376-4.864-7.552-5.76-8.192-9.216-7.424-38.784 0.512-14.464 0.384-39.04 0-54.656l-0.768-28.544h-39.424l0.384-72.576 0.384-72.704 4.224-9.856c13.312-30.72 38.4-52.224 73.6-63.232l7.296-2.304v-154.112c0-146.048-0.128-153.984-2.176-153.344-1.28 0.256-7.168 1.536-13.184 2.688-71.552 13.952-131.328 49.792-179.456 107.52-35.584 42.88-56.192 84.224-67.456 135.936-5.632 25.984-6.912 40.96-6.144 76.416 0.64 35.328 2.176 48.384 8.064 72.448 13.312 53.76 43.52 105.984 84.992 146.56 5.76 5.632 11.648 12.544 13.184 15.36 3.712 7.04 3.712 18.56-0.128 25.6-1.408 2.816-13.184 18.944-26.112 35.84-25.344 33.152-28.032 35.712-40.064 36.992-3.456 0.384-8.192 0.128-10.496-0.64z"  horiz-adv-x="1024" />

    
    <glyph glyph-name="blind" unicode="&#58901;" d="M733.824 725.248c-7.296-2.432-12.928-6.016-19.072-12.544-4.992-5.12-87.552-104.576-381.696-459.776-66.944-80.768-123.136-149.632-124.672-152.96-6.528-13.312-3.968-32.256 6.016-45.312 6.784-8.832 16.256-12.928 30.08-12.928 17.792 0 21.76 2.816 48.384 35.072 10.24 12.288 19.2 23.168 20.096 24.064 1.152 1.408 4.608 0.64 18.176-4.096C456.96 53.76 589.568 56.704 712.96 105.216c71.936 28.288 133.504 68.992 190.208 125.696 39.296 39.424 65.792 74.24 93.824 123.52l6.912 11.904-2.304 4.096c-9.728 16.768-31.232 50.304-40.832 63.488-51.456 71.296-120.576 130.304-199.808 170.752l-20.608 10.496 19.072 22.912c10.752 13.056 20.608 26.112 22.4 30.08 4.48 9.344 5.248 21.504 2.048 31.488-2.688 8.704-12.928 19.84-21.632 23.68-7.296 3.2-21.504 4.224-28.416 1.92z m29.696-226.432c45.696-28.16 92.928-73.472 126.848-121.344l7.808-10.88-8.96-12.8C848.64 296.448 795.52 249.216 731.392 213.76l-16-8.832 7.552 9.216C761.6 261.76 782.08 319.36 782.08 380.928c0 40.96-8.96 79.872-26.496 114.816-3.072 6.272-4.864 10.88-3.968 10.368 0.896-0.512 6.272-3.84 11.904-7.296zM659.456 481.28c15.232-21.632 25.728-48.384 29.696-75.648 7.424-50.048-6.784-100.096-39.68-139.648-19.2-22.784-48.768-42.624-79.104-52.736-18.688-6.272-37.376-8.832-59.008-8.064-28.928 0.896-48.512 6.016-75.136 19.712l-13.824 7.168 2.304 2.944c1.152 1.536 16.256 19.84 33.408 40.576l31.232 37.632 5.248-1.28c2.944-0.64 11.008-1.28 18.048-1.152 10.368 0 14.592 0.64 22.272 3.2 38.912 13.568 58.88 55.296 45.568 95.232l-3.328 9.6 6.144 7.424c3.328 4.096 18.56 22.272 33.664 40.576l27.52 33.024 4.48-5.12c2.56-2.816 7.296-8.832 10.496-13.44zM492.16 664.704c-79.488-3.072-152.576-21.632-224.256-56.832-93.184-45.824-174.336-119.168-227.84-205.952-4.992-8.064-11.776-19.328-15.104-24.96l-6.144-10.112 5.504-10.368c36.48-67.712 91.264-131.072 154.112-178.304 7.68-5.76 14.464-10.112 14.976-9.6 3.2 3.584 55.808 66.56 56.576 67.84 0.512 0.896-3.712 4.736-11.52 10.368-38.272 27.52-79.744 69.76-106.368 108.288l-7.936 11.392 2.816 3.968c16.128 23.168 39.04 50.048 62.08 72.576 19.456 19.2 33.024 30.592 56.704 47.36 11.904 8.448 38.912 25.472 40.32 25.472 0.384 0-1.408-3.584-3.84-7.936-21.248-38.656-31.36-79.872-31.36-127.104 0-39.808 6.656-72.32 21.376-105.472l3.712-8.192 33.664 40.704c32.512 39.552 33.664 40.96 32.896 45.44-0.384 2.432-1.152 12.8-1.536 23.04-0.64 15.616-0.384 20.864 1.92 33.408 4.352 24.192 10.88 41.472 23.552 62.208 29.696 48.768 79.872 79.36 136.704 83.328l12.288 0.896 41.6 50.56c24.32 29.568 41.088 50.944 40.192 51.328-2.432 1.408-36.352 4.992-57.728 6.272-19.584 1.152-27.264 1.152-47.36 0.384z"  horiz-adv-x="1024" />

    
    <glyph glyph-name="check-box" unicode="&#58902;" d="M0 384v-512h1024V298.24h-81.92v-344.32H81.92V814.08h656.64V896H0v-512zM716.8 570.496L493.568 348.416l-102.784 102.016c-56.576 56.064-103.168 102.016-103.808 102.272-0.512 0.128-19.584-18.432-42.368-41.216l-41.472-41.472 144.384-143.872c79.36-79.104 144.768-144 145.408-144.128 1.024-0.384 212.736 209.408 485.376 480.896l45.696 45.568-41.984 41.984-41.984 41.984L716.8 570.496z"  horiz-adv-x="1024" />

    
    <glyph glyph-name="close" unicode="&#58903;" d="M257.92 638.72l-28.16-28.16 113.024-113.024 112.896-112.896-112.896-112.896-113.024-113.024 28.16-28.16 28.16-28.16 112.896 112.896 113.024 113.024 113.024-113.024 112.896-112.896 28.16 28.16 28.16 28.16-113.024 113.024-112.896 112.896 112.896 112.896 113.024 113.024-28.16 28.16-28.16 28.16-112.896-112.896-113.024-113.024-113.024 113.024-112.896 112.896-28.16-28.16z"  horiz-adv-x="1024" />

    
    <glyph glyph-name="column" unicode="&#58904;" d="M0 384v-512h282.88V896H0v-512z m194.56 0v-428.8H83.2V812.8h111.36v-428.8zM371.2 384v-512h281.6V896H371.2v-512z m194.56 0v-428.8h-111.36V812.8h111.36v-428.8zM741.12 384v-512h282.88V896H741.12v-512z m194.56 0v-428.8h-110.08V812.8h110.08v-428.8z"  horiz-adv-x="1024" />

    
    <glyph glyph-name="copy" unicode="&#58905;" d="M309.76 791.04v-104.96H0v-814.08h715.52V81.92h308.48V662.4l-122.368 116.864L779.136 896H309.76v-104.96z m424.96-66.56v-107.52h225.28v-471.04H372.48V832h362.24v-107.52z m175.36-43.008c0-0.256-25.088-0.512-55.68-0.512H798.72V788.608l55.68-53.248c30.592-29.312 55.68-53.504 55.68-53.888zM309.76 352v-270.08h341.76v-145.92H64V622.08h245.76v-270.08z"  horiz-adv-x="1024" />

    
    <glyph glyph-name="drag" unicode="&#58906;" d="M424.96 808.32L338.56 721.92H471.04V572.544l-13.952-4.608c-29.44-9.6-56.448-26.368-79.616-49.792-23.296-23.424-39.296-48.896-49.408-78.976l-4.864-14.208H174.08V557.44l-86.656-86.784L0.64 384l86.784-86.656 86.656-86.784V343.04h150.4l2.176-8.32c4.352-16.256 14.976-38.656 26.752-56.32 22.784-34.176 63.616-65.024 104.576-78.72l13.056-4.48V46.08H338.56l86.784-86.656 86.656-86.784 86.656 86.784 86.784 86.656H552.96V196.864l4.736 0.896c7.424 1.408 35.84 13.056 46.976 19.328 16.64 9.344 26.112 16.768 43.008 33.664 24.32 24.448 39.168 48.384 48.896 79.232l4.224 13.056H849.92v-132.48l86.656 86.784 86.784 86.656-86.784 86.656-86.656 86.784V424.96H700.8l-4.224 13.184c-9.088 28.928-25.984 56.064-49.536 79.744-24.704 24.832-53.12 42.24-84.736 51.584l-9.344 2.816V721.92h132.48L599.04 808.32C551.552 855.808 512.384 894.72 512 894.72c-0.384 0-39.552-38.912-87.04-86.4z m109.056-297.728c28.032-4.224 50.048-14.72 68.352-32.64 19.456-18.944 31.36-42.88 35.712-71.552 9.984-66.56-23.296-124.544-82.56-143.744-17.92-5.76-41.472-7.936-60.928-5.376-53.504 6.656-92.416 40.448-106.24 91.904-7.424 28.032-4.352 66.944 7.424 92.8 11.136 24.192 34.048 46.72 58.752 57.728 23.808 10.496 54.272 14.72 79.488 10.88z"  horiz-adv-x="1024" />

    
    <glyph glyph-name="drag-up-down" unicode="&#58907;" d="M0 824.96V753.92h57.6V838.4h84.48V896H0v-71.04zM424.96 809.6L338.56 723.2H471.04v-149.248l-14.08-4.736c-60.16-19.84-109.696-68.736-128.64-126.976-6.4-19.712-8.704-37.248-7.936-60.8 1.024-29.952 6.016-50.176 18.816-75.776 10.112-20.096 20.736-34.688 38.4-52.352 24.576-24.576 47.36-38.784 79.104-49.28l14.336-4.736V49.92H338.56l86.784-86.656 86.656-86.784 86.656 86.784 86.784 86.656H552.96V199.296l13.184 4.224c30.976 9.728 55.68 25.088 81.024 50.432 28.288 28.416 44.928 57.856 53.12 93.696 3.968 17.92 4.864 47.744 1.792 65.92-7.04 42.496-25.984 77.952-57.856 108.8-22.272 21.504-50.56 38.528-78.72 47.488l-12.544 3.968V723.2h132.48L599.04 809.6C551.552 857.088 512.384 896 512 896c-0.384 0-39.552-38.912-87.04-86.4z m114.048-298.24c50.56-8.832 87.552-45.312 98.56-97.28 2.176-10.112 2.176-45.184 0.128-55.04-5.888-26.752-16.256-45.952-34.944-64.384-15.104-14.848-34.048-25.472-55.552-31.104-10.24-2.688-14.336-3.072-36.48-3.072-27.264 0.128-34.176 1.152-52.096 8.32-25.728 10.368-49.152 32.384-61.696 58.24-17.152 34.944-17.024 85.76 0.256 119.04 11.904 23.04 32.384 43.264 55.296 54.784 8.192 4.096 26.112 9.728 35.2 11.008 11.904 1.792 39.936 1.536 51.328-0.512zM881.92 867.2V838.4h84.48v-84.48h57.6V896H881.92v-28.8zM0 640.64V583.68h57.6v113.92H0v-56.96zM966.4 640.64V583.68h57.6v113.92h-57.6v-56.96zM0 469.12V412.16l28.544 0.256 28.416 0.384 0.384 56.704 0.256 56.576H0v-56.96zM966.656 469.504l0.384-56.704 28.544-0.384 28.416-0.256v113.92h-57.6l0.256-56.576zM0 298.88V241.92h57.6l-0.256 56.704-0.384 56.576-28.416 0.384L0 355.84v-56.96zM967.296 354.944c-0.512-0.384-0.896-26.112-0.896-56.96V241.92h57.6v113.92h-27.904c-15.36 0-28.416-0.384-28.8-0.896zM0 128.64V71.68h57.6v113.92H0v-56.96zM966.4 128.64V71.68h57.6v113.92h-57.6v-56.96zM0-56.96V-128h142.08v57.6H57.6v84.48H0v-71.04zM966.4-28.16v-42.24h-84.48v-57.6h142.08V14.08h-57.6v-42.24z"  horiz-adv-x="1024" />

    
    <glyph glyph-name="duplicate" unicode="&#58908;" d="M0 487.68v-408.32h218.88v-207.36h805.12V688.64H805.12V896H0v-408.32z m741.12 0.64V144.64H64V832h677.12v-343.68zM960 280.32v-343.04H282.88V79.36h522.24V623.36h154.88v-343.04z"  horiz-adv-x="1024" />

    
    <glyph glyph-name="edit" unicode="&#58909;" d="M0 383.36V-128h1024V298.24h-81.92v-345.6H81.92V815.36h322.56V894.72H0v-511.36zM842.752 892.8c-2.816-0.896-7.936-3.328-11.392-5.504-5.248-3.328-126.08-119.936-126.08-121.856 0-0.384 41.984-42.624 93.44-94.08l93.312-93.312 47.744 47.104c75.136 74.24 73.6 72.576 78.848 83.712 4.608 9.472 4.736 10.368 4.736 23.936 0 13.184-0.256 14.592-4.224 22.912-3.84 8.192-8.32 12.928-64.384 68.48-33.152 32.768-62.72 61.184-65.664 63.104-2.816 2.048-8.192 4.48-11.904 5.504-7.936 2.304-27.008 2.304-34.432 0z m63.232-116.224l47.616-47.616-29.184-29.184-29.056-29.056-48 48-48 48L828.16 795.52C844.032 811.392 857.216 824.32 857.6 824.32c0.384 0 22.144-21.504 48.384-47.744zM452.736 514.176L214.912 277.12v-93.696l0.128-93.824h186.496l238.592 237.312c131.2 130.56 238.592 238.08 238.592 238.848 0 1.408-185.984 185.6-187.392 185.6-0.384 0-107.776-106.752-238.592-237.184z m323.84 39.296c-4.992-5.12-97.536-96.768-205.568-203.904L374.656 154.88H279.04l0.128 47.744 0.128 47.616 204.928 203.776 204.8 203.648 48.512-47.488 48.384-47.616-9.344-9.088z"  horiz-adv-x="1024" />

    
    <glyph glyph-name="export" unicode="&#58910;" d="M55.424 859.648C32.512 854.016 11.392 833.536 4.608 810.368 2.816 804.096 2.56 785.536 2.56 641.664V480h140.8V719.36h736v-239.36h140.8V641.024c0 137.088-0.256 161.92-1.92 167.936-6.4 24.192-27.264 45.184-50.432 50.688-10.368 2.432-902.144 2.432-912.384 0zM439.168 646.144c-5.888-1.664-12.16-6.912-15.744-13.056l-2.944-5.248-0.64-216.192-0.64-216.192-82.688 80.64c-64.768 63.104-83.84 81.024-88.32 82.816-6.912 2.816-16.896 3.072-22.912 0.512-7.04-2.944-78.592-71.808-81.92-78.592-3.456-7.424-3.456-19.328-0.128-25.984 2.688-5.248 22.272-24.576 221.312-218.112 97.792-95.104 128.768-124.416 133.76-126.976 8.192-3.968 17.152-4.224 24.576-0.64 5.376 2.688 29.056 25.344 251.776 241.536 75.52 73.344 103.936 101.76 105.856 105.728 3.456 7.168 3.456 16.128 0 22.912-1.664 3.2-14.08 16.384-31.744 33.536-50.816 49.664-49.152 48.512-62.336 48.512-6.528 0-9.216-0.768-14.464-3.712-3.968-2.304-38.4-35.072-93.184-88.704l-86.784-84.864-0.64 221.824c-0.768 246.528 0.128 224.768-9.216 233.728-8.32 8.064-8.96 8.064-77.056 7.936-35.712 0-63.36-0.64-65.92-1.408z"  horiz-adv-x="1024" />

    
    <glyph glyph-name="eye" unicode="&#58911;" d="M492.16 684.032c-82.432-3.84-152.448-21.632-224.256-56.96-93.184-45.824-174.336-119.168-227.84-205.952-4.992-8.064-11.776-19.328-15.104-24.96l-6.144-10.112 5.504-10.368c26.368-48.896 65.664-99.456 106.752-137.344 40.32-37.248 72.704-60.928 117.888-85.76 78.336-43.008 171.52-66.816 261.76-66.816 112.384 0 222.464 34.688 316.16 99.712 49.024 34.048 102.016 86.4 136.576 135.168 13.696 19.2 40.064 62.208 40.064 65.152 0 1.792-29.312 48.512-39.424 62.848-87.168 123.264-225.792 208.64-372.736 229.632-31.104 4.48-73.984 6.912-99.2 5.76z m51.2-111.36c33.152-5.76 61.44-18.816 86.784-39.936C668.032 501.12 691.2 450.432 691.2 399.36c0-41.472-14.72-81.664-41.728-114.176-14.592-17.28-39.552-36.096-61.312-45.952-52.096-23.424-113.28-19.84-162.432 9.728-26.368 15.872-44.416 33.92-60.416 60.544-33.28 55.424-33.28 124.288 0 179.712 16 26.624 34.048 44.672 60.416 60.544 19.584 11.776 37.888 18.432 62.592 23.04 12.8 2.304 41.216 2.304 55.04-0.128z m-261.12-45.568c-14.976-27.392-25.216-59.008-29.568-91.136-2.432-18.688-2.304-57.216 0.128-73.984 7.424-49.024 28.416-96.256 58.88-132.224 3.456-4.224 7.296-8.704 8.192-9.984 4.864-6.144-41.344 18.56-68.352 36.608-44.032 29.568-88.704 73.344-118.144 115.968L124.16 385.664l2.816 3.968c32.128 46.08 75.52 89.6 121.344 121.856 11.264 7.808 35.84 23.296 37.376 23.424 0.512 0.128-1.024-3.456-3.456-7.808z m481.28-9.088c45.696-28.16 92.928-73.472 126.848-121.344l7.808-10.88-8.96-12.8C848.64 315.648 795.52 268.416 731.392 232.96l-16-8.832 7.552 9.216C761.6 280.96 782.08 338.56 782.08 400.128c0 40.96-8.96 79.872-26.496 114.816-3.072 6.272-4.864 10.88-3.968 10.368 0.896-0.512 6.272-3.84 11.904-7.296zM493.44 475.52c-19.968-4.864-38.656-20.224-48.512-39.808-7.808-15.488-9.216-39.552-3.456-56.832 7.04-21.12 24.96-38.528 47.488-46.208 12.416-4.224 32.896-3.968 45.952 0.512 22.528 7.936 40.32 26.368 46.976 48.896 3.584 11.776 3.2 32-0.64 43.904-7.808 23.936-28.16 43.264-52.096 49.408-9.216 2.432-26.496 2.432-35.712 0.128z"  horiz-adv-x="1024" />

    
    <glyph glyph-name="gear" unicode="&#58912;" d="M395.776 877.184c-3.712-10.496-13.44-37.376-21.632-60.032l-14.848-41.088-8.192-3.584-8.192-3.456L285.184 796.16l-57.728 27.136-77.44-77.44-77.312-77.312L99.84 611.072l27.136-57.472-2.816-8.448-2.816-8.448-24.448-8.576c-13.568-4.864-40.832-14.592-60.672-21.632L0 493.44v-218.88l26.624-9.472c14.592-5.12 41.856-14.848 60.544-21.504l34.048-12.288 2.816-8.448 2.944-8.448L99.84 156.928l-27.136-57.472 77.312-77.312 77.44-77.44 57.728 27.136 57.728 27.136 8.192-3.456c7.296-3.2 8.32-4.224 10.112-8.832 1.024-2.944 10.752-29.824 21.632-59.904l19.712-54.784h218.88l13.056 36.096c7.04 19.968 16.768 47.232 21.632 60.8l8.576 24.448 8.448 2.816 8.448 2.816 57.472-27.136 57.472-27.136 77.312 77.44 77.44 77.312-27.136 57.472-27.136 57.472 2.944 8.448 2.816 8.448 34.048 12.288c18.688 6.656 45.952 16.384 60.672 21.504l26.496 9.472V493.568l-29.696 11.008c-16.384 6.016-43.392 15.744-60.032 21.504l-30.208 10.624-3.584 8.192-3.456 8.192 27.136 57.728 27.136 57.728-77.44 77.312-77.312 77.44L738.816 796.16l-57.728-27.136-8.192 3.456-8.192 3.584-14.848 41.088c-8.192 22.656-17.92 49.536-21.632 60.032L621.44 896h-218.88l-6.784-18.816z m190.72-94.08c8.32-22.784 16.768-46.208 18.944-52.224l3.84-10.88 16.256-5.76c8.96-3.2 24.832-9.984 35.328-14.976 10.496-5.12 19.584-9.344 20.224-9.344s23.552 10.624 50.816 23.68l49.536 23.68 41.856-41.984 41.984-41.856-23.68-49.536C828.544 576.64 817.92 553.728 817.92 552.96c0-0.768 2.944-7.168 6.528-14.336 7.424-14.72 16.384-37.248 19.712-49.28 2.176-7.68 2.304-7.808 8.832-10.24 3.584-1.408 27.392-9.984 52.864-19.072l46.464-16.512v-119.04l-39.296-13.824c-21.76-7.552-45.568-15.744-52.992-18.432l-13.568-4.608-3.584-12.288c-4.224-13.952-11.904-33.024-19.712-48.384-2.816-5.888-5.248-11.136-5.248-11.904 0-0.768 10.624-23.68 23.68-50.944l23.68-49.536-41.984-41.856-41.856-41.984-49.536 23.68C704.64 67.456 681.728 78.08 680.96 78.08c-0.768 0-7.168-2.944-14.336-6.528-14.72-7.424-37.248-16.384-49.28-19.712-7.68-2.176-7.808-2.304-10.24-8.832-1.408-3.584-9.984-27.392-19.072-52.864L571.52-56.32h-119.04l-4.096 11.904c-2.304 6.4-10.496 30.208-18.304 52.736l-14.336 40.96-10.368 3.072c-13.184 3.84-35.2 12.8-49.792 20.096-6.144 3.072-11.776 5.632-12.544 5.632-0.768 0-23.68-10.624-50.944-23.68L242.56 30.72l-41.856 41.984-41.984 41.856 23.68 49.536c13.056 27.264 23.68 50.176 23.68 50.944 0 0.768-2.944 7.04-6.4 14.08-7.552 15.104-15.232 33.92-19.2 47.616l-2.816 9.856-22.016 7.808c-12.032 4.224-35.84 12.8-52.864 18.944L71.68 324.48v119.04l46.464 16.512c25.472 9.088 49.28 17.664 52.864 19.072 6.528 2.432 6.656 2.56 8.832 10.24 3.328 12.032 12.288 34.56 19.712 49.28 3.584 7.168 6.528 13.568 6.528 14.336 0 0.768-10.624 23.68-23.68 50.944L158.72 653.44l41.984 41.856 41.856 41.984 49.536-23.68c27.264-13.056 50.176-23.68 50.944-23.68 0.768 0 6.4 2.56 12.672 5.632 14.208 7.168 39.04 17.536 50.816 21.248l8.96 2.944L433.92 771.968 452.352 824.32h119.296l14.848-41.216zM494.72 557.952c-27.392-2.432-57.984-13.824-82.432-30.592-13.696-9.344-35.456-31.36-44.928-45.568-40.448-59.776-39.936-137.344 1.28-197.504 9.344-13.696 31.36-35.456 45.568-44.928 59.008-39.936 136.576-39.936 195.584 0 14.208 9.472 36.224 31.232 45.568 44.928 41.216 60.16 41.728 137.728 1.28 197.504-9.472 14.208-31.232 36.224-44.928 45.568-25.344 17.408-54.784 28.032-84.864 30.72-15.616 1.408-15.616 1.408-32.128-0.128z m41.344-79.744c16.256-3.84 30.976-12.672 44.672-26.496 19.84-20.224 27.904-39.936 27.776-68.352 0-27.52-8.064-47.104-27.776-67.072-19.84-20.224-40.448-28.8-68.736-28.8-16.128 0-27.904 2.304-40.448 8.32-27.776 13.056-48.384 38.016-54.4 65.792-2.176 10.24-2.176 32.384 0 43.52 3.456 17.408 12.544 33.152 27.136 47.616 17.152 16.896 32.512 24.448 56.832 27.776 6.4 0.896 27.264-0.512 34.944-2.304z"  horiz-adv-x="1024" />

    
    <glyph glyph-name="graph" unicode="&#58913;" d="M0 384v-509.44h1024V298.24h-81.92v-343.04H81.92V812.8h322.56V893.44H0v-509.44zM759.168 783.488c-58.624-32.384-107.136-59.264-107.776-59.904-0.768-0.768 14.08-10.368 37.888-24.704 29.184-17.664 38.912-24.064 38.4-25.6-0.512-1.28-60.16-100.736-62.72-104.704-0.128-0.128-55.296 13.312-122.624 29.952L419.84 628.736l-89.088-88.064c-48.896-48.512-108.16-107.008-131.456-130.048l-42.496-41.728 22.016-22.144 22.016-22.144 100.864 99.968c55.424 55.04 108.8 108.032 118.528 117.888l17.664 17.792 128.128-31.872c98.304-24.32 128.384-31.36 129.28-30.208 0.512 0.896 20.352 33.792 44.16 72.96 23.808 39.296 43.648 71.424 44.16 71.424 0.512 0 18.56-10.624 40.064-23.68s39.296-23.68 39.552-23.68c0.64 0 3.84 245.76 3.2 246.4-0.384 0.256-48.64-25.856-107.264-58.112zM773.504 506.368L742.4 454.656V35.84h124.16V520.704l-30.848 18.688c-16.896 10.24-30.848 18.688-30.976 18.688-0.128-0.128-14.208-23.296-31.232-51.712zM412.544 446.464L367.36 401.28V35.84h124.16V483.328l-15.616 3.584c-8.576 2.048-16.256 3.84-17.024 4.096-0.64 0.256-21.632-19.84-46.336-44.544zM554.24 251.52V35.84h125.44V436.096l-61.312 15.488c-33.664 8.576-61.952 15.616-62.72 15.616-1.024 0-1.408-56.704-1.408-215.68zM251.904 287.104L200.96 236.16l-7.296 7.04c-4.096 3.968-9.344 8.832-11.52 10.88l-4.224 3.712V35.84h125.44V186.88c0 83.072-0.128 151.04-0.384 151.04-0.128 0-23.168-22.912-51.072-50.816z"  horiz-adv-x="1024" />

    
    <glyph glyph-name="hamburger" unicode="&#58914;" d="M0 384v-512h1024V896H0v-512z m948.48 0v-436.48H75.52V820.48h872.96v-436.48zM235.52 638.08V600.32h552.96v75.52H235.52v-37.76zM235.52 469.12V431.36h552.96v75.52H235.52v-37.76zM235.52 298.88V261.12h552.96v75.52H235.52v-37.76zM235.52 129.92V92.16h552.96v75.52H235.52v-37.76z"  horiz-adv-x="1024" />

    
    <glyph glyph-name="import" unicode="&#58915;" d="M499.712 859.008c-7.808-3.584-352.64-337.408-356.224-344.96-3.84-7.936-3.712-19.968 0.384-27.008 4.352-7.296 75.264-75.904 81.28-78.336 6.912-2.944 18.048-2.56 25.344 1.024 4.736 2.176 27.136 23.68 93.568 89.216l87.296 86.272v-221.44c0-152.704 0.384-222.592 1.408-225.152 2.304-6.272 11.392-14.336 18.304-16.384 9.344-2.816 124.032-2.816 133.376 0 6.912 2.048 14.464 8.832 17.408 15.36 1.28 3.072 1.792 45.568 2.304 219.008l0.64 215.296 80.64-79.232c53.376-52.352 82.688-80.256 86.912-82.56 4.864-2.688 7.936-3.328 14.08-3.328 13.184 0 11.52-1.28 62.592 48.512 20.48 19.968 29.952 30.08 31.616 33.92 3.072 6.656 3.2 15.744 0.512 22.144-2.56 6.144-7.04 10.624-117.12 117.376-51.072 49.536-124.288 120.576-162.816 157.824-49.152 47.616-71.936 68.864-76.544 71.424-7.936 4.224-17.152 4.608-24.96 1.024zM2.56 127.104C2.56 21.76 3.072-35.968 3.968-39.68c5.504-24.448 28.8-47.232 53.376-52.352 4.864-1.024 134.656-1.408 455.04-1.408 493.44 0 453.632-0.64 470.656 7.936 10.624 5.504 23.68 18.56 29.184 29.44 8.32 16.256 7.936 6.272 7.936 183.168V288H879.36v-239.36H143.36V288H2.56v-160.896z"  horiz-adv-x="1024" />

    
    <glyph glyph-name="layout" unicode="&#58916;" d="M64 641.92V540.16h264.96V743.68H64v-101.76zM377.6 641.92V540.16h266.24V743.68H377.6v-101.76zM692.48 641.92V540.16h266.24V743.68H692.48v-101.76zM64 384v-102.4h894.72V486.4H64v-102.4zM64 126.72v-102.4h407.04V229.12H64v-102.4zM550.4 126.72v-102.4h408.32V229.12H550.4v-102.4z"  horiz-adv-x="1024" />

    
    <glyph glyph-name="minus" unicode="&#58917;" d="M210.56 442.624c-0.256-0.896-1.536-6.784-2.816-13.184-3.2-16.512-2.944-73.472 0.512-92.16l2.304-12.8h602.88l2.432 11.52c3.456 16.512 3.328 75.776-0.128 94.72l-2.304 12.8-301.184 0.384c-240.256 0.256-301.184 0-301.696-1.28z"  horiz-adv-x="1024" />

    
    <glyph glyph-name="minus-circle" unicode="&#58918;" d="M462.72 830.08c-109.824-11.648-214.272-65.664-287.104-148.48-63.488-72.32-102.016-161.28-110.208-254.976-1.792-19.968-1.792-65.28 0-85.248 9.728-111.872 63.744-218.624 147.712-292.48 97.664-85.888 219.904-124.16 349.44-109.568 121.344 13.568 235.264 78.976 306.816 175.872 70.016 94.848 99.2 203.776 86.016 320.64-13.568 121.344-78.976 235.264-175.872 306.816C711.04 793.216 638.336 821.76 556.8 830.08c-22.4 2.304-72.064 2.304-94.08 0z m354.56-397.696c4.48-23.424 4.48-72.192 0-96.64l-2.176-11.904H206.464l-1.536 7.424c-4.864 25.472-5.248 79.488-0.768 101.76l2.432 11.136H814.976l2.304-11.776z"  horiz-adv-x="1024" />

    
    <glyph glyph-name="minus-square" unicode="&#58919;" d="M118.4 830.208c-23.424-5.76-43.776-24.96-51.712-49.024L64 773.248v-387.712c0-427.648-0.64-393.856 7.936-410.368 5.888-11.136 22.272-27.264 33.024-32.384 4.608-2.176 11.392-4.608 15.104-5.376 9.728-2.048 771.584-2.048 781.312 0 25.728 5.504 50.56 30.336 55.936 55.936 2.048 9.728 2.048 771.584 0 781.312-2.944 14.08-13.824 31.232-25.856 40.832-7.04 5.632-18.944 11.648-27.776 14.208-8.32 2.304-775.808 2.816-785.28 0.512z m698.88-397.824c4.48-23.424 4.48-72.192 0-96.64l-2.176-11.904H206.464l-2.432 13.184c-3.584 19.072-3.584 76.544 0 94.72l2.432 12.416h608.512l2.304-11.776z"  horiz-adv-x="1024" />

    
    <glyph glyph-name="paste" unicode="&#58920;" d="M568.32 858.88v-37.12h-89.6v-33.28H318.72v-157.44H0v-759.04h670.72V30.72h353.28V788.48H864V821.76h-87.04V896H568.32v-37.12z m-89.6-141.44V704h385.28v26.88h102.4v-642.56H670.72V251.264l-0.128 162.816-113.92 108.16-114.048 108.16-33.792 0.384-33.792 0.256v99.84h103.68v-13.44z m-79.36-245.76V371.2h212.48v-102.144c0-56.192-0.384-155.008-0.896-219.52l-0.768-117.376H60.16V572.16h339.2v-100.48z m114.56 7.68c20.48-19.584 40.32-38.656 44.16-42.496l7.04-6.784H459.52v101.632l8.704-8.32c4.736-4.608 25.344-24.448 45.696-44.032z"  horiz-adv-x="1024" />

    
    <glyph glyph-name="pencil" unicode="&#58921;" d="M801.792 894.08c-9.984-1.792-19.584-6.016-28.544-12.8-3.2-2.432-38.912-37.376-79.232-77.696l-73.344-73.472 118.016-118.656 117.888-118.656 74.368 73.216c40.832 40.32 76.16 75.904 78.464 79.104 6.912 9.472 10.88 18.944 13.056 30.976 2.816 16 0.896 29.696-6.144 43.904-4.992 9.984-7.424 12.544-82.944 87.808C847.36 893.568 849.92 891.52 829.824 894.592c-11.264 1.792-16.384 1.664-28.032-0.512zM873.6 744.96l60.16-60.16-36.864-36.736-36.736-36.864-60.416 60.416-60.544 60.544L775.68 768.64C795.776 788.736 812.416 805.12 812.8 805.12c0.384 0 27.776-27.136 60.8-60.16zM301.696 411.136L0 109.44V-128h237.824l300.672 301.44C703.744 339.2 839.04 475.392 839.04 476.16c0 1.408-233.216 236.8-234.624 236.8-0.512 0-136.704-135.808-302.72-301.824zM661.76 533.12l60.8-60.8L463.36 213.12 204.16-46.08H81.92v122.24l258.816 258.816C483.2 477.44 599.936 593.92 600.32 593.92c0.384 0 28.032-27.392 61.44-60.8z"  horiz-adv-x="1024" />

    
    <glyph glyph-name="plus" unicode="&#58922;" d="M467.2 829.952c-15.232-1.792-37.376-5.248-41.216-6.4-2.176-0.64-2.304-10.112-2.304-176V472.32H72.96l-0.768-3.456c-0.384-2.048-1.28-5.632-1.92-8.064-3.072-12.672-5.248-36.864-5.888-66.56-0.768-36.352 0.64-58.752 5.12-81.92l2.816-14.72 175.744-0.384 175.616-0.256V-54.656l13.184-2.688c24.192-4.992 33.408-5.632 79.872-4.992 37.504 0.384 47.232 0.896 61.184 3.2 9.216 1.536 17.92 3.072 19.584 3.456l2.816 0.64V296.96h175.232c165.888 0 175.36 0.128 176 2.304 2.816 9.6 6.912 49.536 7.808 77.056 0.896 27.264-3.456 78.72-7.808 93.824-0.64 2.048-10.112 2.176-176 2.176H600.32V647.552c0 165.888-0.128 175.36-2.176 176-4.608 1.28-25.856 4.736-41.344 6.528-19.84 2.432-69.12 2.304-89.6-0.128z"  horiz-adv-x="1024" />

    
    <glyph glyph-name="plus-circle" unicode="&#58923;" d="M464 830.08c-109.824-11.648-214.272-65.664-287.104-148.48-63.488-72.32-102.016-161.28-110.208-254.976-1.792-19.968-1.792-65.28 0-85.248 9.728-111.872 63.744-218.624 147.712-292.48 97.664-85.888 219.904-124.16 349.44-109.568 121.344 13.568 235.264 78.976 306.816 175.872 70.016 94.848 99.2 203.776 86.016 320.64-13.568 121.344-78.976 235.264-175.872 306.816C712.32 793.216 639.616 821.76 558.08 830.08c-22.4 2.304-72.064 2.304-94.08 0z m94.976-139.648l13.184-2.176V444.16h244.096l2.304-11.776c4.48-23.424 4.48-72.192 0-96.64l-2.176-11.904H572.16v-244.096l-13.056-2.304c-25.728-4.48-71.68-4.48-95.488 0.128l-11.776 2.176V323.84H207.616l-2.176 11.776c-4.48 24.576-4.48 72.32 0 96.256l2.304 12.288H451.84V688.256l13.824 2.304c26.88 4.48 65.408 4.48 93.312-0.128z"  horiz-adv-x="1024" />

    
    <glyph glyph-name="plus-square" unicode="&#58924;" d="M118.4 830.208c-23.424-5.76-43.776-24.96-51.712-49.024L64 773.248v-387.712c0-427.648-0.64-393.856 7.936-410.368 5.888-11.136 22.272-27.264 33.024-32.384 4.608-2.176 11.392-4.608 15.104-5.376 9.728-2.048 771.584-2.048 781.312 0 25.728 5.504 50.56 30.336 55.936 55.936 2.048 9.728 2.048 771.584 0 781.312-2.944 14.08-13.824 31.232-25.856 40.832-7.04 5.632-18.944 11.648-27.776 14.208-8.32 2.304-775.808 2.816-785.28 0.512z m439.296-139.776l13.184-2.176V444.16h244.096l2.304-11.776c4.48-23.424 4.48-72.192 0-96.64l-2.176-11.904H570.88v-243.968l-12.288-2.304c-24.448-4.608-72.32-4.608-96.256 0l-11.776 2.176V323.84H206.336l-2.176 11.776c-4.48 24.576-4.48 72.32 0 96.256l2.304 12.288H450.56V688.256l13.824 2.304c26.88 4.48 65.408 4.48 93.312-0.128z"  horiz-adv-x="1024" />

    
    <glyph glyph-name="publish" unicode="&#58925;" d="M0 383.36V-128h1024V894.72H0v-511.36z m581.12 295.424v-141.824l70.784 70.784 70.656 70.656 70.144-70.016 70.016-70.144V820.48h85.76v-872.96H75.52V820.48h505.6v-141.696zM245.76 577.92V537.6h252.16v80.64H245.76v-40.32zM245.76 383.36V343.04h532.48v80.64H245.76v-40.32zM245.76 185.6v-40.96h532.48v81.92H245.76v-40.96z"  horiz-adv-x="1024" />

    
    <glyph glyph-name="redo" unicode="&#58926;" d="M558.72 888.192C530.176 881.536 506.88 858.624 499.072 829.44c-0.896-3.2-1.536-11.52-1.536-18.56 0.128-15.104 2.944-25.344 10.24-37.376 6.016-9.984 51.84-58.24 84.736-89.344 13.44-12.672 24.448-23.424 24.448-23.808 0.128-3.072-11.776-3.584-92.8-4.096-78.592-0.512-87.424-0.768-104.96-3.2-60.544-8.576-109.184-28.16-156.16-62.976-7.296-5.376-22.656-19.328-35.968-32.512-42.368-42.496-71.68-86.912-92.672-140.544-19.328-49.152-26.624-93.696-25.216-153.728 1.28-55.808 10.624-99.968 31.616-148.736 36.736-85.888 103.808-156.672 187.264-197.632 49.024-24.064 95.744-35.456 155.264-38.016 23.552-1.024 32.896 0.384 47.744 7.424 8.576 4.096 12.928 7.296 21.248 15.488 11.392 11.392 16.64 20.352 20.352 34.944 2.56 9.856 2.688 29.568 0.128 38.912-4.224 16.128-14.464 31.232-27.776 41.216-15.104 11.392-28.416 15.616-56.704 17.664-42.112 3.2-72.704 11.52-103.68 28.416-46.976 25.6-84.224 68.096-104.064 118.784-15.872 40.576-19.84 93.696-10.496 141.824 5.248 27.136 18.816 60.8 33.92 84.096 14.72 22.912 24.96 34.688 42.24 48.512 29.312 23.424 49.92 33.92 80.64 40.832 10.624 2.304 17.28 2.56 90.88 3.072 43.648 0.384 84.608 0.256 91.008-0.256l11.648-0.896-47.872-46.848c-51.328-50.432-59.392-59.136-65.792-71.04-5.376-10.24-7.424-18.176-8.32-33.536-0.64-11.264-0.384-14.08 2.56-23.808 7.168-24.448 22.784-41.728 45.824-51.072 23.168-9.216 44.928-7.424 67.584 5.504 8.576 4.864 67.456 62.336 202.624 197.632 84.992 85.248 98.176 98.816 98.176 102.144 0 4.352-22.784 27.52-191.36 194.432-100.352 99.328-104.064 102.784-114.304 108.032-15.872 8.32-35.584 11.264-50.816 7.808z"  horiz-adv-x="1024" />

    
    <glyph glyph-name="save" unicode="&#58927;" d="M157.44 888.832c-5.12-3.968-38.528-33.152-74.112-65.024-35.584-31.744-68.992-61.184-73.984-65.408L0 750.848V-128h1024V896H166.656L157.44 888.832z m35.84-186.752V561.92h647.68V842.24h129.28v-916.48H840.96V313.6H194.56v-387.84H53.76V726.528l66.944 57.728c43.264 37.376 67.84 57.856 69.76 57.856l2.816 0.128v-140.16zM345.6 723.2v-87.04h-65.28V810.24h65.28v-87.04z m441.6-630.4V-74.24H247.04V259.84h540.16v-167.04z"  horiz-adv-x="1024" />

    
    <glyph glyph-name="settings" unicode="&#58928;" d="M716.288 723.328L582.016 589.056l0.768-6.528c1.792-15.104-3.712-39.04-12.544-54.016l-4.224-7.296 49.408-48.512 49.536-48.512 10.496 5.376c15.104 7.68 27.648 10.752 44.032 10.752h13.312L866.56 574.08 1000.32 707.84 925.44 782.72 850.56 857.6 716.288 723.328zM201.6 837.12c-9.984-1.408-12.032-2.432-14.208-6.656-4.096-7.808-3.072-9.216 36.352-49.024 33.92-34.176 37.248-37.888 41.472-46.72 5.632-11.776 7.552-20.48 7.552-34.176 0-17.408-6.272-35.456-16.512-47.872-8.704-10.368-49.408-49.28-56.704-54.144-11.648-7.68-23.424-11.008-38.656-11.008-14.72 0-23.296 1.92-35.456 7.808-7.168 3.584-13.44 9.216-45.44 40.832-38.656 38.4-40.96 40.064-48.384 37.248-5.504-2.176-7.04-6.144-8.704-23.168-1.664-17.792-0.256-42.496 3.456-60.16 4.736-22.912 15.616-49.152 28.032-67.84 25.728-38.656 63.616-67.84 107.008-82.304 25.344-8.448 31.488-9.216 78.592-9.216 47.616-0.128 48.768-0.256 68.48-10.88 8.96-4.864 24.96-20.608 246.4-242.432C685.184 46.976 794.88-62.208 798.848-65.024c8.448-6.4 20.608-12.032 32-14.976 11.008-2.944 33.536-2.944 44.672-0.128 24.96 6.528 46.72 24.704 58.112 48.512 6.016 12.544 8.448 23.424 8.448 38.912 0 14.592-1.408 23.168-5.504 33.664-6.656 17.408 13.312-3.328-331.264 342.4-86.272 86.656-158.848 160.256-161.152 163.584-6.272 9.344-11.136 20.992-13.44 32.256-1.792 8.576-1.92 14.848-1.152 39.68 0.896 31.616-0.512 47.872-6.016 68.48-12.672 47.616-43.136 89.856-84.352 117.12-25.728 17.024-50.56 26.624-82.432 32-11.904 2.048-43.392 2.432-55.168 0.64z m183.04-326.272c6.528-3.968 479.232-476.16 482.688-482.048 4.48-7.808 4.608-19.072 0.128-26.624-6.528-11.136-17.408-15.36-29.952-11.776l-7.424 2.048-240.256 240.256-240.256 240.256-2.048 7.424c-3.584 12.416 0.64 23.296 11.52 29.824 6.656 3.968 19.712 4.352 25.6 0.64zM283.264 182.784L198.4 97.92l-4.736 4.736-4.864 4.736-25.472-20.48-25.472-20.352-41.984-66.56C72.704-36.608 53.76-66.944 53.76-67.584c0-0.512 4.608-5.504 10.24-11.136 9.472-9.344 10.368-9.984 13.056-8.448 1.664 0.768 32 19.84 67.584 42.112l64.64 40.704 19.584 23.552c10.752 13.056 19.84 24.448 20.352 25.344 0.384 1.024-1.408 3.84-4.224 6.784l-4.864 4.992 84.992 85.12 85.12 85.12-20.48 20.48c-11.264 11.264-20.736 20.48-21.12 20.48-0.384 0-38.784-38.144-85.376-84.736z"  horiz-adv-x="1024" />

    
    <glyph glyph-name="templates" unicode="&#58929;" d="M0 824.96V753.92h57.6V838.4h84.48V896H0v-71.04zM198.4 867.2V838.4h115.2V896h-115.2v-28.8zM369.92 867.2V838.4l56.704 0.256 56.576 0.384 0.384 28.544L483.84 896h-113.92v-28.8zM540.416 867.584l0.384-28.544 56.704-0.384 56.576-0.256V896h-113.92l0.256-28.416zM710.4 867.2V838.4h115.2V896h-115.2v-28.8zM881.92 867.2V838.4h84.48v-84.48h57.6V896H881.92v-28.8zM163.84 384v-348.16h696.32V732.16H163.84v-348.16z m642.56 242.56V574.72H217.6v103.68h588.8v-51.84z m0-321.28V89.6H217.6V520.96h588.8v-215.68zM0 640.64V583.68h57.6v113.92H0v-56.96zM966.4 640.64V583.68h57.6v113.92h-57.6v-56.96zM0 469.12V412.16l28.544 0.256 28.416 0.384 0.384 56.704 0.256 56.576H0v-56.96zM966.656 469.504l0.384-56.704 28.544-0.384 28.416-0.256v113.92h-57.6l0.256-56.576zM0 298.88V241.92h57.6l-0.256 56.704-0.384 56.576-28.416 0.384L0 355.84v-56.96zM967.296 354.944c-0.512-0.384-0.896-26.112-0.896-56.96V241.92h57.6v113.92h-27.904c-15.36 0-28.416-0.384-28.8-0.896zM0 128.64V71.68h57.6v113.92H0v-56.96zM966.4 128.64V71.68h57.6v113.92h-57.6v-56.96zM0-56.96V-128h142.08v57.6H57.6v84.48H0v-71.04zM966.4-28.16v-42.24h-84.48v-57.6h142.08V14.08h-57.6v-42.24zM198.4-99.2V-128h115.2v57.6h-115.2v-28.8zM369.92-99.2V-128h113.92l-0.256 28.416-0.384 28.544-56.576 0.384-56.704 0.256v-28.8zM541.056-71.296c-0.512-0.384-0.896-13.44-0.896-28.8V-128h113.92v57.6h-56.064c-30.848 0-56.576-0.384-56.96-0.896zM710.4-99.2V-128h115.2v57.6h-115.2v-28.8z"  horiz-adv-x="1024" />

    
    <glyph glyph-name="trash" unicode="&#58930;" d="M326.4 824.96V755.2H96v-213.76h78.08v-669.44h686.08V541.44h69.12V755.2H698.88V894.72H326.4v-69.76zM629.76 791.04v-35.84H394.24V826.88h235.52v-35.84z m230.4-142.72V609.28H163.84v78.08h696.32v-39.04zM792.32 235.52v-296.96H243.2V532.48h549.12v-296.96zM326.4 241.28V60.16h67.84V422.4h-67.84v-181.12zM478.72 241.28V60.16h67.84V422.4h-67.84v-181.12zM629.76 241.28V60.16h69.12V422.4h-69.12v-181.12z"  horiz-adv-x="1024" />

    
    <glyph glyph-name="undo" unicode="&#58931;" d="M433.024 887.68c-9.728-2.176-17.152-5.376-26.112-11.392-3.84-2.56-72.448-70.144-152.448-150.144C143.36 615.04 108.8 579.84 108.8 577.536c0-2.304 18.048-21.376 73.728-77.44 81.152-81.92 203.648-203.136 217.088-214.784 14.848-12.8 28.928-18.048 49.024-18.048 36.224-0.256 68.352 26.24 75.776 62.336 3.584 17.792-0.512 40.448-10.112 56.832-4.608 7.552-27.904 31.616-78.848 81.152L403.2 498.944l10.496 0.896c5.888 0.512 46.336 0.64 89.984 0.256 87.168-0.512 89.728-0.768 113.664-8.832 27.904-9.216 53.632-26.496 78.592-52.608 31.872-33.408 55.168-85.376 61.312-137.216 3.584-29.568 0.64-70.4-7.168-98.56-7.936-28.544-24.832-60.8-43.52-83.2-29.056-34.688-66.688-60.544-107.264-73.472-22.784-7.296-30.848-8.704-76.16-12.928-16.512-1.536-28.544-5.376-40.064-12.8-15.232-9.984-25.984-24.32-31.232-41.984-3.84-12.544-3.2-36.224 1.152-48.896 8.448-24.192 30.208-43.264 55.936-49.408 15.232-3.584 63.488-0.64 96.384 6.016 68.864 13.824 126.08 43.392 182.528 94.336 34.432 31.104 65.408 72.192 86.4 114.816 9.856 19.968 19.84 44.032 18.688 45.056-0.256 0.384 1.408 6.4 3.84 13.568 10.496 30.976 16.896 68.736 18.048 106.624 3.072 103.296-31.232 198.784-99.584 277.632-30.592 35.328-63.744 61.696-102.016 81.024-29.056 14.848-49.408 22.016-80.896 28.928-31.872 6.912-41.216 7.552-133.12 8.064-80.896 0.512-92.16 1.024-92.16 4.096 0 0.512 9.984 10.368 22.144 21.888 29.44 27.776 79.232 79.616 84.736 87.936 8.96 13.568 12.16 24.576 12.16 41.344 0 21.76-6.912 38.4-22.144 54.016C484.48 885.504 459.264 893.44 433.024 887.68z"  horiz-adv-x="1024" />

    


  </font>
</defs>
</svg>
